<svg id="flat" height="512" viewBox="0 0 512 512" width="512" xmlns="http://www.w3.org/2000/svg"><path d="m232 400h48v64h-48z" fill="#d1cfc3"/><path d="m280 416v-16h-48v64a48 48 0 0 1 48-48z" fill="#b7b2a5"/><path d="m24 80h464v328h-464z" fill="#3f484f"/><path d="m24 391.14v16.86h464v-292.933c-108.786 147.133-274.17 249.883-464 276.073z" fill="#2a3135"/><path d="m48 56h416v328h-416z" fill="#ffa511"/><path d="m56 320h400v56h-400z" fill="#b7b2a5"/><path d="m256 360c0-17.673-44.772-32-100-32s-100 14.327-100 32v-304c0-17.673 44.772-32 100-32s100 14.327 100 32c0-17.673 44.772-32 100-32s100 14.327 100 32v304c0-17.673-44.772-32-100-32s-100 14.327-100 32z" fill="#ededeb"/><path d="m446.241 42.2a1080.429 1080.429 0 0 1 -79.478 285.989c50.166 1.711 89.237 15.302 89.237 31.811v-304c0-4.943-3.5-9.624-9.759-13.8z" fill="#cececc"/><path d="m360 168h72v16h-72z" fill="#e0300e"/><path d="m360 264h72v16h-72z" fill="#e0300e"/><path d="m256 56c0-4.344-2.71-8.485-7.61-12.261a576.666 576.666 0 0 1 -192.39 285.92v30.341c0-17.673 44.771-32 100-32s100 14.327 100 32z" fill="#cececc"/><path d="m252.207 231.044-104-56a8 8 0 0 1 .44-14.308l104-48 6.706 14.528-89.453 41.287 89.9 48.405z" fill="#ff5086"/><path d="m256 120-3.353-7.264-37.675 17.389q-5.638 11.675-11.772 23.057l52.8-24.371z" fill="#db3a74"/><path d="m256 224v-9.086l-67.393-36.289q-4.165 6.856-8.5 13.6l72.1 38.824z" fill="#db3a74"/><g fill="#ff5086"><path d="m300 103.913h16v184.174h-16z" transform="matrix(.825 -.565 .565 .825 -56.873 208.162)"/><path d="m219.186 144h177.629v16h-177.629z" transform="matrix(.586 -.811 .811 .586 4.442 312.688)"/><path d="m252.286 92h111.427v16h-111.427z" transform="matrix(.933 -.359 .359 .933 -15.368 117.239)"/><path d="m300 190.729h16v114.543h-16z" transform="matrix(.419 -.908 .908 .419 -46.244 423.725)"/></g><path d="m80 160h72v16h-72z" fill="#e0300e"/><path d="m360 72h72v16h-72z" fill="#e0300e"/><path d="m432 280v-16h-39.839q-2.885 8.029-5.891 16z" fill="#b20d24"/><circle cx="152" cy="168" fill="#26bfb0" r="24"/><path d="m432 184v-16h-10.306q-2.065 8.023-4.25 16z" fill="#b20d24"/><path d="m259.353 231.264-6.706-14.528 89.453-41.287-89.9-48.405 7.586-14.088 104 56a8 8 0 0 1 -.44 14.308z" fill="#ff5086"/><circle cx="360" cy="80" fill="#26bfb0" r="24"/><circle cx="360" cy="272" fill="#26bfb0" r="24"/><circle cx="256" cy="120" fill="#3098c6" r="24"/><circle cx="256" cy="224" fill="#3098c6" r="24"/><circle cx="360" cy="176" fill="#26bfb0" r="24"/><path d="m256 200a24 24 0 0 0 0 48z" fill="#2686a8"/><path d="m256 96a24 24 0 0 0 0 48z" fill="#2686a8"/><path d="m168 488h176a32 32 0 0 0 -32-32h-112a32 32 0 0 0 -32 32z" fill="#666"/><path d="m312 456h-12.132a71.924 71.924 0 0 1 -59.868 32h104a32 32 0 0 0 -32-32z" fill="#565655"/><path d="m256 376c0-17.673 44.772-32 100-32s100 14.327 100 32z" fill="#999488"/><path d="m256 376c0-17.673-44.772-32-100-32s-100 14.327-100 32z" fill="#999488"/></svg>