<svg id="Layer_1_1_" enable-background="new 0 0 64 64" height="512" viewBox="0 0 64 64" width="512" xmlns="http://www.w3.org/2000/svg"><path d="m3 37h6v14h-6z" fill="#91cbd7"/><path d="m55 62h-46v-31h46z" fill="#91cbd7"/><path d="m55 37h6v14h-6z" fill="#91cbd7"/><circle cx="21" cy="44" fill="#f69489" r="8"/><path d="m27.314 39.1c-.411-.529-.885-1.003-1.414-1.414l-3.9 3.9v-5.517c-.328-.041-.661-.069-1-.069s-.672.028-1 .069v5.517l-3.9-3.9c-.529.411-1.003.885-1.414 1.414l3.9 3.9h-5.517c-.041.328-.069.661-.069 1s.028.672.069 1h5.517l-3.9 3.9c.411.529.885 1.003 1.414 1.414l3.9-3.9v5.517c.328.041.661.069 1 .069s.672-.028 1-.069v-5.517l3.9 3.9c.529-.411 1.003-.885 1.414-1.414l-3.9-3.9h5.517c.041-.328.069-.661.069-1s-.028-.672-.069-1h-5.517z" fill="#ed6571"/><path d="m23.12 41.88c.54.54.88 1.29.88 2.12s-.34 1.58-.88 2.12-1.29.88-2.12.88-1.58-.34-2.12-.88-.88-1.29-.88-2.12.34-1.58.88-2.12 1.29-.88 2.12-.88 1.58.34 2.12.88z" fill="#ffe5ca"/><circle cx="43" cy="44" fill="#f69489" r="8"/><path d="m49.314 39.1c-.411-.529-.885-1.003-1.414-1.414l-3.9 3.9v-5.517c-.328-.041-.661-.069-1-.069s-.672.028-1 .069v5.517l-3.9-3.9c-.529.411-1.003.885-1.414 1.414l3.9 3.9h-5.517c-.041.328-.069.661-.069 1s.028.672.069 1h5.517l-3.9 3.9c.411.529.885 1.003 1.414 1.414l3.9-3.9v5.517c.328.041.661.069 1 .069s.672-.028 1-.069v-5.517l3.9 3.9c.529-.411 1.003-.885 1.414-1.414l-3.9-3.9h5.517c.041-.328.069-.661.069-1s-.028-.672-.069-1h-5.517z" fill="#ed6571"/><path d="m45.12 41.88c.54.54.88 1.29.88 2.12s-.34 1.58-.88 2.12-1.29.88-2.12.88-1.58-.34-2.12-.88-.88-1.29-.88-2.12.34-1.58.88-2.12 1.29-.88 2.12-.88 1.58.34 2.12.88z" fill="#ffe5ca"/><g fill="#68607c"><path d="m18 29h-2v-10h-4v-2h6z"/><path d="m27 29h-2v-7.586l-4-4v-5.414h2v4.586l4 4z"/><path d="m36 29h-2v-9.414l4-4v-4.586h2v5.414l-4 4z"/><path d="m46 29h-2v-13h8v2h-6z"/><path d="m45 30.414-3.707-3.707 1.414-1.414 2.293 2.293 2.293-2.293 1.414 1.414z"/><path d="m35 30.414-3.707-3.707 1.414-1.414 2.293 2.293 2.293-2.293 1.414 1.414z"/><path d="m26 30.414-3.707-3.707 1.414-1.414 2.293 2.293 2.293-2.293 1.414 1.414z"/><path d="m17 30.414-3.707-3.707 1.414-1.414 2.293 2.293 2.293-2.293 1.414 1.414z"/></g><path d="m61 14v6l-5 3-5-3v-6l5-3z" fill="#91cbd7"/><path d="m34 2h10v10h-10z" fill="#f69489"/><path d="m22 2 5 11h-10z" fill="#ffd086"/><circle cx="8" cy="18" fill="#ed6571" r="5"/><path d="m7 37h2v14h-2z" fill="#4e9bb9"/><path d="m55 37h2v14h-2z" fill="#4e9bb9"/><path d="m27 56h2v2h-2z" fill="#68607c"/><path d="m31 56h2v2h-2z" fill="#68607c"/><path d="m35 56h2v2h-2z" fill="#68607c"/></svg>